Coordinates
version=1
nRows=11
nColumns=63
inDegrees=yes

Units are S.I. units (second, meters, Newtons, ...)
If the header above contains a line with 'inDegrees', this indicates whether rotational values are in degrees (yes) or radians (no).

endheader
time	pelvis_tilt	pelvis_list	pelvis_rotation	pelvis_tx	pelvis_ty	pelvis_tz	hip_flexion_r	hip_adduction_r	hip_rotation_r	knee_angle_r	knee_angle_r_beta	ankle_angle_r	subtalar_angle_r	mtp_angle_r	hip_flexion_l	hip_adduction_l	hip_rotation_l	knee_angle_l	knee_angle_l_beta	ankle_angle_l	subtalar_angle_l	mtp_angle_l	L5_S1_Flex_Ext	L5_S1_Lat_Bending	L5_S1_axial_rotation	L4_L5_Flex_Ext	L4_L5_Lat_Bending	L4_L5_axial_rotation	L3_L4_Flex_Ext	L3_L4_Lat_Bending	L3_L4_axial_rotation	L2_L3_Flex_Ext	L2_L3_Lat_Bending	L2_L3_axial_rotation	L1_L2_Flex_Ext	L1_L2_Lat_Bending	L1_L2_axial_rotation	L1_T12_Flex_Ext	L1_T12_Lat_Bending	L1_T12_axial_rotation	Abs_r3	Abs_r2	Abs_r1	Abs_t1	Abs_t2	neck_flexion	neck_bending	neck_rotation	arm_flex_r	arm_add_r	arm_rot_r	elbow_flex_r	pro_sup_r	wrist_flex_r	wrist_dev_r	arm_flex_l	arm_add_l	arm_rot_l	elbow_flex_l	pro_sup_l	wrist_flex_l	wrist_dev_l
     15.09803922	     -2.06163789	     -1.51797409	     88.43198268	      0.15889665	      1.16738066	      0.43693196	      0.50000566	     -2.50485201	     -8.36695115	      6.67245767	      0.11645636	     30.59077499	     13.78469250	      0.00000000	      1.60243770	      3.56418178	      7.82239762	      6.04589506	      0.10552078	     27.19634924	     -4.09950049	      0.00000000	     -0.22929692	     -0.93333382	      1.66209572	     -0.42582731	     -1.24133399	      1.76597670	     -0.37671191	     -2.26930786	      1.76597670	     -0.26206345	     -2.26930786	      1.45433376	     -0.21292512	     -1.90325433	      1.35045277	     -0.13102026	     -1.44573409	      1.24657179	     -1.63784499	    -10.55805888	      9.24407777	      0.00000000	      0.00000000	     15.16739684	     22.94512982	    -22.98458883	    111.72637660	    -42.86928614	     27.61174350	     74.56251200	     86.48299469	      1.60987075	    -18.40813003	    134.51148858	      7.81200931	    186.00801127	      0.14204927	      1.36783132	    -68.70738692	    -24.21425269
     15.11764706	     -2.25312543	     -1.13534772	     88.97911156	      0.15768518	      1.16822973	      0.43530490	     -0.03602002	     -2.79230727	     -9.14596621	      6.75950277	      0.11797558	     30.86435529	     14.02333608	      0.00000000	      1.19829442	      3.75488076	      6.49319605	      6.22546637	      0.10865489	     27.41336986	     -2.35601596	      0.00000000	     -0.19429432	     -0.89725309	      1.38111871	     -0.36082397	     -1.19334661	      1.46743863	     -0.31920613	     -2.18158116	      1.46743863	     -0.22205897	     -2.18158116	      1.20847887	     -0.18042170	     -1.82967850	      1.12215895	     -0.11101977	     -1.38984503	      1.03583903	     -1.38782487	    -10.14990638	      7.68136793	      0.00000000	      0.00000000	     13.74883571	     20.51536996	    -20.84228797	    116.80860661	    -39.99433281	     31.79204090	     71.15896228	     87.07995497	      1.95958869	    -17.09660333	    135.85696079	      6.10841989	    183.92714635	      0.17183196	      1.37931311	    -64.96684456	    -24.29853823
     15.13725490	     -2.78612653	     -0.80182769	     89.74223773	      0.15763303	      1.16868785	      0.43392305	     -0.47171372	     -3.34129944	     -9.79266861	      6.98974889	      0.12199413	     31.32914476	     13.81173520	      0.00000000	      0.83277708	      4.25027147	      5.76706103	      6.42329532	      0.11210765	     27.28843416	     -1.30433853	      0.00000000	     -0.18678647	     -0.94382282	      1.19076058	     -0.34688116	     -1.25528435	      1.26518312	     -0.30687150	     -2.29481081	      1.26518312	     -0.21347826	     -2.29481081	      1.04191551	     -0.17344992	     -1.92464350	      0.96749297	     -0.10672979	     -1.46198155	      0.89307043	     -1.33419710	    -10.67671252	      6.62265312	      0.00000000	      0.00000000	     13.06958584	     18.09671200	    -20.41732114	    121.07376142	    -38.75021012	     34.97812776	     69.86895108	     87.50101875	      2.63350967	    -15.68617095	    137.92754070	      5.38827092	    183.76062169	      0.18794220	      1.38236423	    -60.87354376	    -24.34658844
     15.15686275	     -3.16208010	     -0.71357245	     90.39271302	      0.15780241	      1.16863635	      0.43219510	     -0.71646133	     -3.71946915	    -10.72516150	      7.08177782	      0.12360034	     31.68784848	     14.30441147	      0.00000000	      0.78472593	      4.45262016	      3.43061113	      6.85958482	      0.11972234	     27.80555024	      2.21966179	      0.00000000	     -0.16954874	     -1.00171594	      1.19924811	     -0.31486896	     -1.33228220	      1.27420112	     -0.27855162	     -2.43557214	      1.27420112	     -0.19377725	     -2.43557214	      1.04934210	     -0.15744296	     -2.04269915	      0.97438909	     -0.09688015	     -1.55165800	      0.89943608	     -1.21106967	    -11.33161109	      6.66985822	      0.00000000	      0.00000000	     12.70787720	     16.81409583	    -21.93555159	    125.68255112	    -39.58985905	     39.31297638	     70.16640326	     86.82516803	      2.51854854	    -15.72052253	    140.21039270	      5.90170013	    183.25892393	      0.18877659	      1.47106782	    -56.72561762	    -24.48263056
     15.17647059	     -3.37851004	     -0.76358754	     91.14105526	      0.15754302	      1.16846404	      0.43050513	     -0.79125948	     -3.91529758	    -11.45101188	      7.21159344	      0.12586605	     31.92234302	     14.41133276	      0.00000000	      0.85934723	      4.58597779	      2.75395422	      7.27922908	      0.12704651	     27.97310238	      3.61748046	      0.00000000	     -0.16311528	     -1.04215154	      1.17464038	     -0.30292139	     -1.38606155	      1.24805541	     -0.26798210	     -2.53388725	      1.24805541	     -0.18642446	     -2.53388725	      1.02781033	     -0.15146885	     -2.12515542	      0.95439531	     -0.09320407	     -1.61429274	      0.88098029	     -1.16511616	    -11.78902665	      6.53299741	      0.00000000	      0.00000000	     12.13762341	     16.40992207	    -22.94046421	    129.89785454	    -40.35457674	     42.90129010	     71.12013334	     85.91497201	      3.15493768	    -15.79412861	    142.73239236	      6.33634846	    186.92593850	      0.17745504	      1.60549184	    -59.39996387	    -24.43598372
     15.19607843	     -3.41916859	     -0.89496553	     91.88753154	      0.15696109	      1.16801343	      0.42892676	     -0.71200461	     -3.94849879	    -12.22603573	      7.43811479	      0.12981959	     32.16399673	     14.58792319	      0.00000000	      1.02319513	      4.59894819	      2.88038755	      7.66828493	      0.13383682	     28.10520047	      3.91633964	      0.00000000	     -0.16646780	     -1.06864439	      1.17602256	     -0.30914735	     -1.42129704	      1.24952397	     -0.27348994	     -2.59830197	      1.24952397	     -0.19025604	     -2.59830197	      1.02901974	     -0.15458200	     -2.17917964	      0.95551833	     -0.09511970	     -1.65533016	      0.88201692	     -1.18906282	    -12.08871909	      6.54068469	      0.00000000	      0.00000000	     11.69826925	     16.83113852	    -24.00792004	    134.13882334	    -41.43946326	     46.97079596	     72.19548772	     84.18181577	      2.97165506	    -16.56934559	    145.25121216	      7.09381423	    191.18808005	      0.16408320	      1.92855529	    -64.07809955	    -24.33955858
     15.21568627	     -3.47317508	     -1.05552017	     92.70394554	      0.15627902	      1.16724936	      0.42752373	     -0.55645055	     -4.02185155	    -13.30028149	      7.76035692	      0.13544378	     32.61008350	     15.04565559	      0.00000000	      1.16054842	      4.66081726	      3.55103561	      7.84040783	      0.13684093	     28.28229242	      3.69952827	      0.00000000	     -0.17796555	     -1.10365869	      1.19977581	     -0.33049983	     -1.46786606	      1.27476180	     -0.29237960	     -2.68343574	      1.27476180	     -0.20339683	     -2.68343574	      1.04980383	     -0.16525881	     -2.25058080	      0.97481784	     -0.10168952	     -1.70956731	      0.89983186	     -1.27119014	    -12.48480785	      6.67279312	      0.00000000	      0.00000000	     11.38035546	     17.96261560	    -24.74130111	    138.15167478	    -42.69424391	     51.46013799	     73.04126401	     80.74194477	      1.81263357	    -17.73381494	    147.55125663	      8.26836496	    194.31690466	      0.15181547	      2.40255615	    -67.25970720	    -24.27801408
     15.23529412	     -3.45242945	     -1.12505708	     93.55955547	      0.15544580	      1.16662310	      0.42626079	     -0.50461533	     -4.01217200	    -14.27865081	      8.02671558	      0.14009261	     33.05943991	     15.37094453	      0.00000000	      1.17755286	      4.65144204	      4.38328509	      7.83615284	      0.13676667	     28.61969053	      3.58327061	      0.00000000	     -0.20751664	     -1.13083891	      1.24612817	     -0.38537915	     -1.50401575	      1.32401118	     -0.34092909	     -2.74952173	      1.32401118	     -0.23717077	     -2.74952173	      1.09036215	     -0.19269995	     -2.30600671	      1.01247914	     -0.11857501	     -1.75166948	      0.93459613	     -1.48227060	    -12.79227596	      6.93059106	      0.00000000	      0.00000000	     11.12785468	     19.29214719	    -25.55729212	    141.58271970	    -43.84241288	     55.52284823	     73.46038639	     76.57627938	      1.40860892	    -18.50868476	    149.43062858	      9.70753340	    196.24616917	      0.14324948	      2.97210563	    -68.33343962	    -24.28274487
     15.25490196	     -3.33534020	     -1.04455153	     94.49757183	      0.15406771	      1.16648737	      0.42515174	     -0.63487904	     -3.89877748	    -15.22612601	      8.19955968	      0.14310931	     33.39942379	     15.47840059	      0.00000000	      1.02846965	      4.55082436	      5.23331550	      7.69937637	      0.13437947	     29.07615262	      3.87014852	      0.00000000	     -0.24722126	     -1.12736489	      1.27682295	     -0.45911460	     -1.49939530	      1.35662439	     -0.40615981	     -2.74107498	      1.35662439	     -0.28254918	     -2.74107498	      1.11722008	     -0.22956966	     -2.29892248	      1.03741865	     -0.14126223	     -1.74628821	      0.95761721	     -1.76587674	    -12.75297706	      7.10130621	      0.00000000	      0.00000000	     10.65775576	     20.49112190	    -25.80775848	    144.22669863	    -44.38307071	     58.86884047	     73.18606630	     72.88129119	      2.30055221	    -18.60890087	    150.63593678	     10.94958245	    197.33057473	      0.13993373	      3.80299933	    -68.72151141	    -24.28577045
     15.27450980	     -3.11487295	     -0.87019228	     95.14740767	      0.15256686	      1.16673673	      0.42396980	     -0.80810156	     -3.71841959	    -15.98336613	      8.36305538	      0.14596285	     33.71820502	     15.81273057	      0.00000000	      0.71305785	      4.36769029	      6.02897670	      7.36763961	      0.12858957	     29.59028896	      4.08284080	      0.00000000	     -0.27272494	     -1.09028790	      1.36438036	     -0.50647749	     -1.45008290	      1.44965414	     -0.44805980	     -2.65092599	      1.44965414	     -0.31169733	     -2.65092599	      1.19383282	     -0.25325238	     -2.22331508	      1.10855904	     -0.15583503	     -1.68885595	      1.02328527	     -1.94804698	    -12.33355475	      7.58827426	      0.00000000	      0.00000000	      9.80949028	     21.09159261	    -25.81740427	    146.78515729	    -44.67661216	     62.92192543	     72.80443004	     69.06839034	      2.76983470	    -18.20442280	    151.13259911	     11.88719882	    197.67913846	      0.13944000	      4.63183577	    -68.91095521	    -24.27691032
     15.29411765	     -2.85965890	     -0.55450312	     95.91354808	      0.15100997	      1.16734512	      0.42306227	     -1.16775412	     -3.44425667	    -16.58879238	      8.41766935	      0.14691605	     33.88395031	     15.71035865	      0.00000000	      0.30974718	      4.11430719	      6.83490105	      7.09974893	      0.12391399	     30.17198848	      4.54588700	      0.00000000	     -0.30053830	     -1.03930226	      1.38238662	     -0.55812968	     -1.38227201	      1.46878579	     -0.49375438	     -2.52695952	      1.46878579	     -0.34348523	     -2.52695952	      1.20958829	     -0.27907987	     -2.11934517	      1.12318913	     -0.17172759	     -1.60987920	      1.03678997	     -2.14671505	    -11.75679503	      7.68841967	      0.00000000	      0.00000000	      8.81794460	     21.21700230	    -25.60317397	    147.94434768	    -44.43924884	     64.86911901	     72.36190506	     67.48655627	      4.08777450	    -17.06866467	    151.16731560	     12.46739319	    197.85163727	      0.13935841	      5.13438287	    -69.07407774	    -24.25362715
